<?xml version="1.0" standalone="no"?><!DOCTYPE svg PUBLIC "-//W3C//DTD SVG 1.1//EN" "http://www.w3.org/Graphics/SVG/1.1/DTD/svg11.dtd"><svg t="1624128536378" class="icon" viewBox="0 0 1024 1024" version="1.1" xmlns="http://www.w3.org/2000/svg" p-id="9521" xmlns:xlink="http://www.w3.org/1999/xlink" width="200" height="200"><defs><style type="text/css"></style></defs><path d="M836.608 193.792h100.224c18.752 0 33.92-16.192 33.92-36.288a34.112 34.112 0 0 0-33.92-35.2h-211.904v-36.416c0-45.888-34.944-83.84-78.336-83.84H377.92c-42.88 0-78.336 37.44-78.336 83.84v36.288H87.168c-18.752 0-33.92 16.256-33.92 36.352 0 20.096 15.168 36.288 33.92 36.288h100.224l649.216-1.024z m-32 59.904l-585.216 1.024c-20.48 0-37.184 17.6-37.184 39.168v596.096c0 72.64 56.32 132.032 125.12 132.032h409.344c68.8 0 125.12-59.392 125.12-132.032V292.992c0-21.696-16.64-39.296-37.184-39.296z" fill="#515151" p-id="9522"></path></svg>