<?xml version="1.0" standalone="no"?><!DOCTYPE svg PUBLIC "-//W3C//DTD SVG 1.1//EN" "http://www.w3.org/Graphics/SVG/1.1/DTD/svg11.dtd"><svg t="1624128584320" class="icon" viewBox="0 0 1034 1024" version="1.1" xmlns="http://www.w3.org/2000/svg" p-id="11239" xmlns:xlink="http://www.w3.org/1999/xlink" width="201.953125" height="200"><defs><style type="text/css"></style></defs><path d="M518.41635 747.173967v197.366709H81.390067V510.718398h192.2403V431.899875H39.097201a39.088861 39.088861 0 0 0-39.088861 39.729662v512.640801a39.088861 39.088861 0 0 0 39.088861 39.729662h512.640801a39.729662 39.729662 0 0 0 39.729662-39.729662v-237.096371z m0-470.347934V78.818523h434.463079v434.463079h-192.240301v78.818523h233.892366a39.729662 39.729662 0 0 0 39.729662-39.729662v-512.640801a39.729662 39.729662 0 0 0-39.729662-39.729662h-512.640801a39.088861 39.088861 0 0 0-39.088861 39.729662v237.096371z m0 0" fill="#515151" p-id="11240"></path><path d="M267.222357 814.458073l551.088861-551.088861a39.729662 39.729662 0 1 0-55.749687-55.749688l-551.088861 551.088861a39.729662 39.729662 0 1 0 55.749687 55.749688z m10.893617-303.739675a39.088861 39.088861 0 0 0 39.088861-39.729662 39.088861 39.088861 0 0 0-39.088861-39.088861 39.088861 39.088861 0 0 0-39.729662 39.088861 39.729662 39.729662 0 0 0 39.729662 39.729662z m198.00751-197.366708a39.088861 39.088861 0 0 0 39.729662-39.088861 39.729662 39.729662 0 0 0-39.729662-39.729663 39.088861 39.088861 0 0 0-39.088862 39.729663 39.088861 39.088861 0 0 0 39.088862 39.088861z m280.030037 278.748435a39.088861 39.088861 0 0 0 39.729662-39.088861 39.729662 39.729662 0 0 0-39.729662-39.729662 39.088861 39.088861 0 0 0-39.088861 39.729662 39.088861 39.088861 0 0 0 39.088861 39.088861z m-198.64831 196.085107a39.729662 39.729662 0 1 0 0-79.459325 39.729662 39.729662 0 0 0 0 79.459325z m0 0" fill="#515151" p-id="11241"></path><path d="M239.027113 827.914894h158.277847a39.729662 39.729662 0 0 0 0-79.459325H239.027113a39.729662 39.729662 0 0 0 0 79.459325z m0 0" fill="#515151" p-id="11242"></path><path d="M199.938252 628.625782v158.277848a39.729662 39.729662 0 0 0 78.818523 0V628.625782a39.729662 39.729662 0 0 0-78.818523 0z m590.818523-432.540676H633.119729a39.729662 39.729662 0 1 0 0 78.818524h157.637046a39.729662 39.729662 0 1 0 0-78.818524z m0 0" fill="#515151" p-id="11243"></path><path d="M830.486437 393.451815V235.814768a39.729662 39.729662 0 0 0-79.459324 0v157.637047a39.729662 39.729662 0 1 0 79.459324 0z m0 0" fill="#515151" p-id="11244"></path></svg>