<?xml version="1.0" encoding="utf-8"?>
<!-- Generator: Adobe Illustrator 22.0.0, SVG Export Plug-In . SVG Version: 6.00 Build 0)  -->
<svg version="1.1" id="图层_1" xmlns="http://www.w3.org/2000/svg" xmlns:xlink="http://www.w3.org/1999/xlink" x="0px" y="0px"
	 viewBox="0 0 104 104" style="enable-background:new 0 0 104 104;" xml:space="preserve">
<style type="text/css">
	.st0{opacity:0.5;}
	.st1{fill:#FE2341;}
</style>
<g class="st0">
	<circle cx="52" cy="52" r="50"/>
</g>
<g>
	<g>
		<path class="st1" d="M52,70.1c-14.2,0-25.7-11.5-25.7-25.7S37.8,18.6,52,18.6s25.7,11.5,25.7,25.7S66.2,70.1,52,70.1z M52,22.4
			c-12.1,0-21.9,9.8-21.9,21.9S39.9,66.3,52,66.3s21.9-9.8,21.9-21.9S64.1,22.4,52,22.4z"/>
	</g>
	<g>
		<path class="st1" d="M63.9,79.6H40.1c-1,0-1.9-0.8-1.9-1.9s0.8-1.9,1.9-1.9h23.8c1,0,1.9,0.8,1.9,1.9S65,79.6,63.9,79.6z"/>
	</g>
	<g>
		<path class="st1" d="M52,85.4c-1,0-1.9-0.8-1.9-1.9V68.2c0-1,0.8-1.9,1.9-1.9s1.9,0.8,1.9,1.9v15.3C53.9,84.5,53,85.4,52,85.4z"/>
	</g>
</g>
</svg>
