<?xml version="1.0" encoding="utf-8"?>
<!-- Generator: Adobe Illustrator 22.0.0, SVG Export Plug-In . SVG Version: 6.00 Build 0)  -->
<svg version="1.1" id="图层_1" xmlns="http://www.w3.org/2000/svg" xmlns:xlink="http://www.w3.org/1999/xlink" x="0px" y="0px"
	 viewBox="0 0 104 104" style="enable-background:new 0 0 104 104;" xml:space="preserve">
<style type="text/css">
	.st0{opacity:0.5;}
	.st1{fill:#FFFFFF;}
</style>
<g class="st0">
	<circle cx="52" cy="52" r="50"/>
</g>
<g>
	<g>
		<path class="st1" d="M48.8,80.4c-14.2,0-25.8-11.6-25.8-25.8s11.6-25.8,25.8-25.8c14.2,0,25.8,11.6,25.8,25.8S63,80.4,48.8,80.4z
			 M48.8,32.7c-12.1,0-22,9.9-22,22s9.9,22,22,22s22-9.9,22-22S61,32.7,48.8,32.7z"/>
	</g>
	<g>
		<path class="st1" d="M66.2,40.2c-0.5,0-1-0.2-1.3-0.6c-0.7-0.7-0.7-1.9,0-2.7l12.8-12.8c0.5-0.5,1.4-0.7,2.1-0.4
			c0.7,0.3,1.2,1,1.2,1.7v11.6c0,1-0.8,1.9-1.9,1.9s-1.9-0.8-1.9-1.9v-7l-9.6,9.6C67.2,40,66.7,40.2,66.2,40.2z"/>
	</g>
	<g>
		<path class="st1" d="M79,27.4H67.5c-1,0-1.9-0.8-1.9-1.9c0-1,0.8-1.9,1.9-1.9H79c1,0,1.9,0.8,1.9,1.9C80.9,26.5,80.1,27.4,79,27.4
			z"/>
	</g>
</g>
</svg>
