<?xml version="1.0" encoding="utf-8"?>
<!-- Generator: Adobe Illustrator 22.0.0, SVG Export Plug-In . SVG Version: 6.00 Build 0)  -->
<svg version="1.1" id="图层_1" xmlns="http://www.w3.org/2000/svg" xmlns:xlink="http://www.w3.org/1999/xlink" x="0px" y="0px"
	 viewBox="0 0 104 104" style="enable-background:new 0 0 104 104;" xml:space="preserve">
<style type="text/css">
	.st0{opacity:0.5;}
	.st1{fill:#FE2341;}
</style>
<g class="st0">
	<circle cx="52" cy="52" r="50"/>
</g>
<g>
	<g>
		<path class="st1" d="M52,43.7c-1,0-1.9-0.8-1.9-1.9v-9.1c0-1,0.8-1.9,1.9-1.9s1.9,0.8,1.9,1.9v9.1C53.9,42.9,53,43.7,52,43.7z"/>
	</g>
	<g>
		<path class="st1" d="M20.1,68.6c-1,0-1.9-0.8-1.9-1.9V54.3c0-1,0.8-1.9,1.9-1.9s1.9,0.8,1.9,1.9v12.4
			C21.9,67.8,21.1,68.6,20.1,68.6z"/>
	</g>
	<g>
		<path class="st1" d="M83.9,68.6c-1,0-1.9-0.8-1.9-1.9V54.3c0-1,0.8-1.9,1.9-1.9s1.9,0.8,1.9,1.9v12.4
			C85.8,67.8,84.9,68.6,83.9,68.6z"/>
	</g>
	<g>
		<path class="st1" d="M67.4,81.1H36.6c-5.1,0-9.3-4.2-9.3-9.3V49.3c0-5.1,4.2-9.3,9.3-9.3h30.9c5.1,0,9.3,4.2,9.3,9.3v22.6
			C76.7,77,72.6,81.1,67.4,81.1z M36.6,43.7c-3.1,0-5.6,2.5-5.6,5.6v22.6c0,3.1,2.5,5.6,5.6,5.6h30.9c3.1,0,5.6-2.5,5.6-5.6V49.3
			c0-3.1-2.5-5.6-5.6-5.6H36.6z"/>
	</g>
	<g>
		<circle class="st1" cx="52" cy="28.8" r="6"/>
	</g>
	<g>
		<g>
			<circle class="st1" cx="41.8" cy="60.3" r="4.2"/>
		</g>
		<g>
			<circle class="st1" cx="62.2" cy="60.3" r="4.2"/>
		</g>
	</g>
</g>
</svg>
