<?xml version="1.0" standalone="no"?><!DOCTYPE svg PUBLIC "-//W3C//DTD SVG 1.1//EN" "http://www.w3.org/Graphics/SVG/1.1/DTD/svg11.dtd"><svg t="1617076592159" class="icon" viewBox="0 0 1024 1024" version="1.1" xmlns="http://www.w3.org/2000/svg" p-id="1613" xmlns:xlink="http://www.w3.org/1999/xlink" width="200" height="200"><defs><style type="text/css"></style></defs><path d="M786.775514 393.848044c-57.055118 0-107.97444-24.82171-143.834848-63.8176l-218.668619 125.374213c5.425141 18.0367 9.220078 36.782006 9.220078 56.598415 0 32.081856-8.372207 61.925252-21.938132 88.688463l210.181724 120.516367c34.883514-54.624147 95.575873-91.05185 165.03775-91.05185 108.394279 0 196.263543 88.164176 196.263543 196.918902s-87.869264 196.922998-196.263543 196.922998c-108.396327 0-196.265591-88.166224-196.265591-196.922998 0-7.286769 1.366013-14.192612 2.13606-21.278677l-237.657637-136.255215 0.757758-1.519613c-33.013694 25.294797-73.77086 40.902574-118.517523 40.902574C128.832254 708.92607 40.960942 620.759846 40.960942 512.00512c0-108.762918 87.871312-196.922998 196.265591-196.922998 57.05307 0 107.972392 24.823758 143.8328 63.8176l218.666571-125.370117c-5.425141-18.038748-9.21803-36.782006-9.21803-56.598415C590.507875 88.172368 678.379187 0 786.775514 0 895.167746 0 983.039058 88.172368 983.039058 196.929142 983.039058 305.683869 895.167746 393.848044 786.775514 393.848044zM786.775514 945.229982c65.036158 0 117.757716-52.895638 117.757716-118.15298 0-65.253245-52.721559-118.150932-117.757716-118.150932-65.040254 0-117.759764 52.897686-117.759764 118.150932C669.013702 892.334343 721.735261 945.229982 786.775514 945.229982zM237.226534 393.848044c-65.036158 0-117.759764 52.901782-117.759764 118.157076 0 65.253245 52.723607 118.150932 117.759764 118.150932 65.036158 0 117.761812-52.899734 117.761812-118.150932C354.988346 446.749827 302.264739 393.848044 237.226534 393.848044zM786.775514 78.770018c-65.040254 0-117.759764 52.901782-117.759764 118.159124 0 65.251197 52.721559 118.15298 117.759764 118.15298 65.036158 0 117.757716-52.901782 117.757716-118.15298C904.533231 131.671801 851.811672 78.770018 786.775514 78.770018z" p-id="1614" fill="#ffffff"></path></svg>