<?xml version="1.0" standalone="no"?><!DOCTYPE svg PUBLIC "-//W3C//DTD SVG 1.1//EN" "http://www.w3.org/Graphics/SVG/1.1/DTD/svg11.dtd"><svg t="1617076618676" class="icon" viewBox="0 0 1024 1024" version="1.1" xmlns="http://www.w3.org/2000/svg" p-id="1806" xmlns:xlink="http://www.w3.org/1999/xlink" width="200" height="200"><defs><style type="text/css"></style></defs><path d="M506 136.316l130.476 240.528 265.372 51.818L717.12 629.138l33.532 272.55L506 785.046l-244.654 116.642 33.532-272.55L110.152 428.664l265.368-51.818L506 136.316M506.002 25.612 459.6 111.146l-118.618 218.658L100.036 376.854l-92.72 18.106 64.016 69.472 168.17 182.508-30.55 248.302-11.75 95.506 86.86-41.412 221.936-105.812 221.936 105.812 86.86 41.412-11.75-95.506-30.548-248.302 168.174-182.508 64.014-69.472-92.718-18.106-240.954-47.05L552.4 111.148 506.002 25.612 506.002 25.612z" p-id="1807" fill="#ffffff"></path></svg>