<?xml version="1.0" standalone="no"?><!DOCTYPE svg PUBLIC "-//W3C//DTD SVG 1.1//EN" "http://www.w3.org/Graphics/SVG/1.1/DTD/svg11.dtd"><svg t="1617076539623" class="icon" viewBox="0 0 1024 1024" version="1.1" xmlns="http://www.w3.org/2000/svg" p-id="1420" xmlns:xlink="http://www.w3.org/1999/xlink" width="200" height="200"><defs><style type="text/css"></style></defs><path d="M798.358097 1024 225.643951 1024C155.353923 1024 98.373686 966.700328 98.373686 896.017149L98.373686 128.150759C98.373686 57.463485 155.353923 0.167908 225.643951 0.167908l381.808748 0c42.589282-0.675728 59.54186 0.917352 63.635133 0.917352L671.087831 0.167908l254.538483 255.955463c0 46.991751 0 53.988606 0 63.989378l0 575.902352C925.626314 966.700328 868.646077 1024 798.358097 1024zM671.087831 64.159334c0 76.175003 0 127.972613 0 127.972613 0 35.338518 28.491142 63.989378 63.635133 63.989378l127.268217 0L671.087831 64.159334zM861.991181 320.112749c-74.088437 0-127.268217 0-127.268217 0-70.290028 0-127.270265-57.293529-127.270265-127.978756 0 0-1.482506-51.357363-0.90097-127.972613L225.643951 64.161381c-35.146038 0-63.635133 28.640622-63.635133 63.989378l0 767.86639c0 35.338518 28.489095 63.989378 63.635133 63.989378l572.712098 0c35.14399 0 63.635133-28.65086 63.635133-63.989378L861.991181 320.112749z" p-id="1421" fill="#ffffff"></path></svg>