<?xml version="1.0" standalone="no"?><!DOCTYPE svg PUBLIC "-//W3C//DTD SVG 1.1//EN" "http://www.w3.org/Graphics/SVG/1.1/DTD/svg11.dtd"><svg t="1617076447972" class="icon" viewBox="0 0 1024 1024" version="1.1" xmlns="http://www.w3.org/2000/svg" p-id="6705" width="200" height="200" xmlns:xlink="http://www.w3.org/1999/xlink"><defs><style type="text/css"></style></defs><path d="M919.334 263.18 919.334 45.356c0-17.186-7.402-26.752-23.5-33.056-12.408-4.864-24.48-1.95-39.168 1.942L42.002 263.18l0 684.588c0 34.37 28.054 62.236 62.666 62.236l814.666 0c34.61 0 62.668-27.864 62.668-62.236L982.002 325.422C982 291.05 953.944 263.18 919.334 263.18zM856.666 76.48l0 186.702L245.672 263.182 856.666 76.48zM919.334 667.71c0 17.18 0 9.726 0 31.122l-125.332 0c0-20.124 0-13.934 0-31.122l0-31.116 125.332 0C919.334 659.928 919.334 650.526 919.334 667.71zM919.334 574.358l-156.666 0c-17.304 0-31.332 13.934-31.332 31.118l0 124.472c0 17.186 14.028 31.12 31.332 31.12l156.666 0 0 155.576c0 17.194-14.028 31.124-31.332 31.124L136.002 947.768c-17.306 0-31.334-13.93-31.334-31.124 0 0 0-569.836 0-591.23L888 325.422c17.304 0 31.332 13.924 31.332 31.112L919.332 574.358z" p-id="6706" fill="#ffffff"></path></svg>