<?xml version="1.0" encoding="utf-8"?>
<!-- Generator: Adobe Illustrator 22.0.0, SVG Export Plug-In . SVG Version: 6.00 Build 0)  -->
<svg version="1.1" id="图层_1" xmlns="http://www.w3.org/2000/svg" xmlns:xlink="http://www.w3.org/1999/xlink" x="0px" y="0px"
	 viewBox="0 0 200 200" style="enable-background:new 0 0 200 200;" xml:space="preserve">
<style type="text/css">
	.st0{fill:#FFFFFF;}
</style>
<g>
	<path class="st0" d="M170.8,43.1h-15c-2.1,0-3.9-1.2-4.7-3.1l-4.6-11.1c-1-2.4-3.9-4.2-6.8-4.2H60.4c-3,0-5.8,1.8-6.8,4.2L49,40
		c-0.8,1.9-2.6,3.1-4.7,3.1H28.2c-12,0-21.6,9.7-21.6,21.6v90.4c0,12,9.7,21.6,21.6,21.6h142.6c12,0,21.6-9.7,21.6-21.6V64.8
		C192.5,52.8,182.8,43.1,170.8,43.1z M184.8,155.2c0,7.7-6.3,14-14,14H28.2c-7.7,0-14-6.3-14-14V64.8c0-7.7,6.3-14,14-14h16.3h4.9
		c2.1,0,3.9-1.2,4.7-3.1l1.9-4.5l4.5-10.8h79.2l4.5,10.8l1.9,4.5c0.8,1.9,2.6,3.1,4.7,3.1h4.9h15.3c7.7,0,14,6.3,14,14V155.2z"/>
</g>
<g>
	<path class="st0" d="M99.5,156.5c-25.7,0-46.6-20.9-46.6-46.6c0-25.7,20.9-46.6,46.6-46.6c25.7,0,46.6,20.9,46.6,46.6
		C146.1,135.6,125.2,156.5,99.5,156.5z M99.5,70.9c-21.5,0-38.9,17.5-38.9,38.9c0,21.5,17.5,38.9,38.9,38.9
		c21.5,0,38.9-17.5,38.9-38.9C138.4,88.4,121,70.9,99.5,70.9z"/>
</g>
</svg>
