<?xml version="1.0" encoding="utf-8"?>
<!-- Generator: Adobe Illustrator 22.0.0, SVG Export Plug-In . SVG Version: 6.00 Build 0)  -->
<svg version="1.1" id="图层_1" xmlns="http://www.w3.org/2000/svg" xmlns:xlink="http://www.w3.org/1999/xlink" x="0px" y="0px"
	 viewBox="0 0 82.1 69.3" style="enable-background:new 0 0 82.1 69.3;" xml:space="preserve">
<style type="text/css">
	.st0{fill:#FFFFFF;}
</style>
<path class="st0" d="M69,3.3H13c-5.5,0-10,4.5-10,10v33c0,5.5,4.5,10,10,10h3v11l9.1-11H69c5.5,0,10-4.5,10-10v-33
	C79,7.8,74.5,3.3,69,3.3z M16.5,37.3c-3.9,0-7-3.1-7-7s3.1-7,7-7s7,3.1,7,7S20.4,37.3,16.5,37.3z M41,37.3c-3.9,0-7-3.1-7-7
	s3.1-7,7-7s7,3.1,7,7S44.9,37.3,41,37.3z M65.5,37.3c-3.9,0-7-3.1-7-7s3.1-7,7-7s7,3.1,7,7S69.4,37.3,65.5,37.3z"/>
</svg>
