<?xml version="1.0" standalone="no"?><!DOCTYPE svg PUBLIC "-//W3C//DTD SVG 1.1//EN" "http://www.w3.org/Graphics/SVG/1.1/DTD/svg11.dtd"><svg t="1619073023659" class="icon" viewBox="0 0 1024 1024" version="1.1" xmlns="http://www.w3.org/2000/svg" p-id="13934" xmlns:xlink="http://www.w3.org/1999/xlink" width="200" height="200"><defs><style type="text/css"></style></defs><path d="M541.867 475.733c-6.4 0-14.934-2.133-21.334-4.266-14.933-8.534-25.6-23.467-25.6-40.534v-262.4c0-27.733 21.334-49.066 49.067-49.066h145.067c27.733 0 49.066 21.333 49.066 49.066V428.8c0 17.067-10.666 34.133-25.6 40.533-14.933 8.534-34.133 6.4-49.066-4.266l-46.934-34.134-46.933 34.134c-8.533 6.4-19.2 10.666-27.733 10.666z m64-49.066z m19.2 0z m-66.134-243.2v211.2l29.867-21.334c17.067-12.8 38.4-12.8 55.467 0l29.866 21.334v-211.2h-115.2z" fill="#ffffff" p-id="13935"></path><path d="M714.667 923.733H326.4c-87.467 0-157.867-70.4-157.867-157.866V270.933c0-87.466 70.4-157.866 157.867-157.866h398.933c87.467 0 157.867 70.4 157.867 157.866V755.2c0 93.867-74.667 168.533-168.533 168.533zM326.4 177.067c-51.2 0-93.867 42.666-93.867 93.866v494.934c0 51.2 42.667 93.866 93.867 93.866h388.267c57.6 0 104.533-46.933 104.533-104.533V270.933c0-51.2-42.667-93.866-93.867-93.866H326.4z" fill="#ffffff" p-id="13936"></path></svg>