<?xml version="1.0" standalone="no"?><!DOCTYPE svg PUBLIC "-//W3C//DTD SVG 1.1//EN" "http://www.w3.org/Graphics/SVG/1.1/DTD/svg11.dtd"><svg t="1617281748931" class="icon" viewBox="0 0 1024 1024" version="1.1" xmlns="http://www.w3.org/2000/svg" p-id="3014" xmlns:xlink="http://www.w3.org/1999/xlink" width="200" height="200"><defs><style type="text/css"></style></defs><path d="M650.529 240.536c30.92-68.996 77.928-140.22 122.907-140.22 3.738 0 8.412 0.286 13.194 1.653 18.478 5.323 40.699 17.186 37.138 44.437-4.78 34.913-57.577 87.298-173.24 94.13zM569.02 492.644h358.314V1024H569.02V492.644zM215.996 148.456c-2.895-26.066 17.708-39.69 37.12-44.042 4.188-1.367 8.361-1.943 13.033-1.943 44.546 0 91.051 72.197 123.412 140.687-115.988-6.794-169.737-59.61-173.565-94.702zM97.78 492.644H455.48V1024H97.779V492.644z m917.356-39.37V293.318H823.773c60.457-35.525 93.516-84.638 100.329-133.28C933.97 88.814 890.197 27.945 814.91 5.688 801.535 1.731 787.657 0.005 773.44 0.005c-130.585 0-207.057 173.08-234.221 246.281h-39.352C470.13 172.044 396.893 2.02 266.149 2.02c-14.039 0-28.188 2.409-41.22 6.256-75.449 22.364-118.971 83.197-109.443 154.24 6.651 48.176 39.872 95.275 96.842 130.8H8.865V453.27h1006.27v0.003z m0 0" p-id="3015" fill="#ffffff"></path></svg>