<?xml version="1.0" standalone="no"?><!DOCTYPE svg PUBLIC "-//W3C//DTD SVG 1.1//EN" "http://www.w3.org/Graphics/SVG/1.1/DTD/svg11.dtd"><svg t="1617281889632" class="icon" viewBox="0 0 1024 1024" version="1.1" xmlns="http://www.w3.org/2000/svg" p-id="7410" xmlns:xlink="http://www.w3.org/1999/xlink" width="200" height="200"><defs><style type="text/css"></style></defs><path d="M451.466 980.756H151.788c-60.494 0-120.99-57.541-120.99-112.168v-131.19c0-27.766 22.529-50.255 50.256-50.255h70.695V133.79c0.04-60.456 22.213-94.405 90.073-94.405h640.354c67.9 0 95.94 32.453 95.94 88.497v156.357c0 27.766-22.488 50.255-50.254 50.255h-69.199c-52.066-26.428-110.789-41.63-173.213-41.63-212.047 0-383.921 171.874-383.921 383.96-0.04 123.865 58.919 233.748 149.937 303.932zM993.2 676.903c0 169.709-138.082 307.712-307.751 307.712-169.67 0-307.712-138.043-307.712-307.712S515.82 369.152 685.45 369.152c169.669-0.04 307.751 138.043 307.751 307.751z m-497.31 0c0 30.13 7.72 58.29 20.363 83.575l252.77-252.81c-25.285-12.564-53.406-20.323-83.574-20.323-104.527 0-189.558 84.992-189.558 189.558z m379.117 0c0-31.232-8.35-60.258-21.78-86.252l-254.07 254.03c26.033 13.47 55.06 21.78 86.252 21.78 104.567-0.039 189.598-85.03 189.598-189.558z" p-id="7411" fill="#ffffff"></path></svg>