<?xml version="1.0" standalone="no"?><!DOCTYPE svg PUBLIC "-//W3C//DTD SVG 1.1//EN" "http://www.w3.org/Graphics/SVG/1.1/DTD/svg11.dtd"><svg t="1617281785998" class="icon" viewBox="0 0 1024 1024" version="1.1" xmlns="http://www.w3.org/2000/svg" p-id="1325" xmlns:xlink="http://www.w3.org/1999/xlink" width="200" height="200"><defs><style type="text/css"></style></defs><path d="M209.788742 403.223273H30.40256c-36.584727 0-29.928727 41.611636-29.928727 41.611636l36.584727 547.141818c0 32.023273 36.538182 32.023273 36.538182 32.023273h146.199273c29.928727 0 29.928727-22.388364 29.928727-22.388364V451.211636c3.258182-41.611636-39.936-47.988364-39.936-47.988363z m744.401454 0h-282.484363C781.366924 12.8 595.324742 0 595.324742 0c-79.778909 0-63.162182 60.834909-69.818182 70.376727 0 192.046545-206.010182 339.269818-206.010182 339.269818v540.718546c0 54.458182 69.818182 73.634909 99.700364 73.634909h425.332363c39.889455 0 73.076364-102.4 73.076364-102.4C1024.008378 576 1024.008378 467.223273 1024.008378 467.223273c0-67.165091-69.771636-64.046545-69.771636-64.046546v0.046546z" p-id="1326" fill="#ffffff"></path></svg>