<?xml version="1.0" standalone="no"?><!DOCTYPE svg PUBLIC "-//W3C//DTD SVG 1.1//EN" "http://www.w3.org/Graphics/SVG/1.1/DTD/svg11.dtd"><svg t="1617245655619" class="icon" viewBox="0 0 1024 1024" version="1.1" xmlns="http://www.w3.org/2000/svg" p-id="3944" xmlns:xlink="http://www.w3.org/1999/xlink" width="200" height="200"><defs><style type="text/css"></style></defs><path d="M512 512m-512 0a512 512 0 1 0 1024 0 512 512 0 1 0-1024 0Z" fill="#0FD2C7" p-id="3945"></path><path d="M273.92 256h476.16c35.584 0 64.465455 28.485818 64.465455 63.604364v391.447272c0 35.095273-28.881455 63.604364-64.465455 63.604364H273.92c-35.607273 0-64.465455-28.485818-64.465455-63.604364v-391.447272C209.454545 284.485818 238.336 256 273.92 256z m14.359273 64.837818c-7.726545 0-13.986909 6.050909-13.986909 13.568v361.844364c0 7.493818 6.260364 13.568 13.963636 13.568h447.464727c7.726545 0 13.986909-6.074182 13.986909-13.568V334.405818a13.777455 13.777455 0 0 0-13.963636-13.568H288.256z" fill="#FFFFFF" p-id="3946"></path><path d="M749.707636 522.891636c37.422545 16.965818 64.837818 67.956364 64.837819 105.890909v83.851637c0 34.234182-30.626909 62.021818-68.375273 62.021818H274.292364C231.330909 774.656 209.454545 734.580364 209.454545 712.610909c4.584727-1.210182 10.705455-4.282182 18.408728-9.146182l335.965091-213.294545c33.210182-21.061818 76.474182-23.970909 112.709818-7.517091l73.169454 40.215273zM360.727273 450.490182a43.217455 43.217455 0 1 0 0-86.434909 43.217455 43.217455 0 0 0 0 86.434909l12.055272-60.509091" fill="#FFFFFF" p-id="3947"></path></svg>