<?xml version="1.0" standalone="no"?><!DOCTYPE svg PUBLIC "-//W3C//DTD SVG 1.1//EN" "http://www.w3.org/Graphics/SVG/1.1/DTD/svg11.dtd"><svg t="1617245577487" class="icon" viewBox="0 0 1026 1024" version="1.1" xmlns="http://www.w3.org/2000/svg" p-id="1332" xmlns:xlink="http://www.w3.org/1999/xlink" width="200.390625" height="200"><defs><style type="text/css"></style></defs><path d="M0 511.385846A511.385846 511.385846 0 1 0 511.385846 0 510.976409 510.976409 0 0 0 0 511.385846z m0 0" fill="#F97E58" p-id="1333"></path><path d="M496.236705 525.306677a160.089564 160.089564 0 1 1 113.413835-47.085166 159.270692 159.270692 0 0 1-113.413835 47.085166z m0-273.093962a112.594962 112.594962 0 1 0 112.594962 112.594962 112.594962 112.594962 0 0 0-112.594962-112.594962z m0 0" fill="#FFFFFF" p-id="1334"></path><path d="M245.661735 816.82527a23.747301 23.747301 0 0 1-23.337865-20.471811 279.235506 279.235506 0 0 1-2.866053-40.943623 275.960016 275.960016 0 0 1 468.395042-198.986006q8.598161 8.188725 16.377449 16.786886a23.747301 23.747301 0 0 1-35.620952 31.526589l-13.511395-13.920832a228.465414 228.465414 0 0 0-386.917233 163.774491 231.740904 231.740904 0 0 0 2.456617 33.57377 23.747301 23.747301 0 0 1-20.062375 27.022791z m0 0" fill="#FFFFFF" p-id="1335"></path><path d="M550.691723 818.872451H250.165534a23.747301 23.747301 0 1 1 0-47.494602h300.526189a23.747301 23.747301 0 1 1 0 47.494602zM672.294282 810.27429l2.456618-149.444222a23.747301 23.747301 0 1 1 47.494602 0l-2.456618 149.444222a23.747301 23.747301 0 1 1-47.494602 0z" fill="#FFFFFF" p-id="1336"></path><path d="M771.787285 752.953219H622.343063a23.747301 23.747301 0 1 1 0-47.494602h149.444222a23.747301 23.747301 0 0 1 0 47.494602z" fill="#FFFFFF" p-id="1337"></path></svg>