<?xml version="1.0" encoding="utf-8"?>
<!-- Generator: Adobe Illustrator 22.0.0, SVG Export Plug-In . SVG Version: 6.00 Build 0)  -->
<svg version="1.1" id="图层_1" xmlns="http://www.w3.org/2000/svg" xmlns:xlink="http://www.w3.org/1999/xlink" x="0px" y="0px"
	 viewBox="0 0 100 100" style="enable-background:new 0 0 100 100;" xml:space="preserve">
<style type="text/css">
	.st0{fill:#FEFEFE;}
</style>
<path class="st0" d="M91.6,82.5l-8.5-13.7V43.3c0-14.4-9.3-26.8-22.2-31.4c-0.8-5.3-5.3-9.3-10.8-9.3c-5.4,0-9.9,3.9-10.8,9.1
	c-13.2,4.4-22.8,16.9-22.8,31.6v25.4L8.4,82.6c-0.9,1.1-0.2,2.9,1.2,3.1c0.1,0,0.2,0,0.3,0h25.9c0.8,7.2,6.9,12.7,14.3,12.7
	c7.4,0,13.5-5.6,14.3-12.7h25.8C91.7,85.6,92.5,83.7,91.6,82.5z M50.1,93.5c-4.7,0-8.7-3.4-9.4-7.9h18.9
	C58.7,90.1,54.8,93.5,50.1,93.5z M82.9,80.8H64.1h-5H41h-5H16.9c-0.8,0-1.3-0.9-0.9-1.6l4.7-8c0.4-0.7,0.7-1.6,0.7-2.4V43.3
	c0-7.6,3-14.7,8.4-20.1c2.9-2.9,6.3-5.1,9.9-6.5c1.5-0.6,3-1,4.6-1.3c-0.2-0.6-0.3-1.2-0.3-1.8c0-1.2,0.3-2.3,0.9-3.2
	c1.1-1.7,3-2.9,5.2-2.9c2.2,0,4.2,1.2,5.3,3c0.5,0.9,0.8,2,0.8,3.1c0,0.7-0.1,1.3-0.3,1.9c1.6,0.3,3.1,0.8,4.6,1.4
	c3.5,1.4,6.7,3.5,9.5,6.3c5.4,5.4,8.4,12.5,8.4,20.1v25.5c0,0.9,0.3,1.8,0.7,2.5l4.8,7.7C84.2,79.9,83.7,80.8,82.9,80.8z"/>
</svg>
