<?xml version="1.0" encoding="utf-8"?>
<!-- Generator: Adobe Illustrator 22.0.0, SVG Export Plug-In . SVG Version: 6.00 Build 0)  -->
<svg version="1.1" id="图层_1" xmlns="http://www.w3.org/2000/svg" xmlns:xlink="http://www.w3.org/1999/xlink" x="0px" y="0px"
	 viewBox="0 0 55 55" style="enable-background:new 0 0 55 55;" xml:space="preserve">
<style type="text/css">
	.st0{fill:#FFFFFF;}
</style>
<g>
	<path class="st0" d="M19.8,25.5H7.1c-3.1,0-5.7-2.5-5.7-5.7V7.1C1.4,4,4,1.4,7.1,1.4h12.7c3.1,0,5.7,2.5,5.7,5.7v12.7
		C25.5,22.9,22.9,25.5,19.8,25.5z M7.1,5.4c-0.9,0-1.7,0.8-1.7,1.7v12.7c0,0.9,0.8,1.7,1.7,1.7h12.7c0.9,0,1.7-0.8,1.7-1.7V7.1
		c0-0.9-0.8-1.7-1.7-1.7H7.1z"/>
</g>
<g>
	<path class="st0" d="M19.8,53.6H7.1c-3.1,0-5.7-2.5-5.7-5.7V35.2c0-3.1,2.5-5.7,5.7-5.7h12.7c3.1,0,5.7,2.5,5.7,5.7v12.7
		C25.5,51,22.9,53.6,19.8,53.6z M7.1,33.5c-0.9,0-1.7,0.8-1.7,1.7v12.7c0,0.9,0.8,1.7,1.7,1.7h12.7c0.9,0,1.7-0.8,1.7-1.7V35.2
		c0-0.9-0.8-1.7-1.7-1.7H7.1z"/>
</g>
<g>
	<path class="st0" d="M47.9,25.5H35.2c-3.1,0-5.7-2.5-5.7-5.7V7.1c0-3.1,2.5-5.7,5.7-5.7h12.7c3.1,0,5.7,2.5,5.7,5.7v12.7
		C53.6,22.9,51,25.5,47.9,25.5z M35.2,5.4c-0.9,0-1.7,0.8-1.7,1.7v12.7c0,0.9,0.8,1.7,1.7,1.7h12.7c0.9,0,1.7-0.8,1.7-1.7V7.1
		c0-0.9-0.8-1.7-1.7-1.7H35.2z"/>
</g>
<g>
	<path class="st0" d="M52.1,39.5c-1.1,0-2-0.9-2-2v-5.8c0-1.1,0.9-2,2-2s2,0.9,2,2v5.8C54.1,38.6,53.2,39.5,52.1,39.5z"/>
</g>
<g>
	<path class="st0" d="M31.5,39.2c-1.1,0-2-0.9-2-2v-5.7c0-1.1,0.9-2,2-2s2,0.9,2,2v5.7C33.5,38.3,32.6,39.2,31.5,39.2z"/>
</g>
<g>
	<path class="st0" d="M31.5,53.6c-1.1,0-2-0.9-2-2v-5.7c0-1.1,0.9-2,2-2s2,0.9,2,2v5.7C33.5,52.7,32.6,53.6,31.5,53.6z"/>
</g>
<g>
	<path class="st0" d="M41.6,39.2c-1.1,0-2-0.9-2-2v-5.7c0-1.1,0.9-2,2-2s2,0.9,2,2v5.7C43.6,38.3,42.7,39.2,41.6,39.2z"/>
</g>
<g>
	<path class="st0" d="M41.6,53.6c-1.1,0-2-0.9-2-2v-5.7c0-1.1,0.9-2,2-2s2,0.9,2,2v5.7C43.6,52.7,42.7,53.6,41.6,53.6z"/>
</g>
<g>
	<path class="st0" d="M52.1,54.1c-1.1,0-2-0.9-2-2v-5.8c0-1.1,0.9-2,2-2s2,0.9,2,2v5.8C54.1,53.2,53.2,54.1,52.1,54.1z"/>
</g>
</svg>
