<?xml version="1.0" encoding="utf-8"?>
<!-- Generator: Adobe Illustrator 22.0.0, SVG Export Plug-In . SVG Version: 6.00 Build 0)  -->
<svg version="1.1" id="图层_1" xmlns="http://www.w3.org/2000/svg" xmlns:xlink="http://www.w3.org/1999/xlink" x="0px" y="0px"
	 viewBox="0 0 55 55" style="enable-background:new 0 0 55 55;" xml:space="preserve">
<style type="text/css">
	.st0{fill:#04CBD9;}
	.st1{fill:none;stroke:#FFFFFF;stroke-width:4;stroke-linecap:round;stroke-linejoin:round;stroke-miterlimit:10;}
</style>
<g>
	<path class="st0" d="M54.5,27.7c0,3.3-6.4,5.2-7.6,8c-1.2,2.9,1.9,8.8-0.3,11c-2.2,2.2-8.1-0.9-11,0.3c-2.8,1.2-4.8,7.6-8,7.6
		c-3.3,0-5.2-6.4-8-7.6c-2.9-1.2-8.8,1.9-11-0.3c-2.2-2.2,0.9-8.1-0.3-11c-1.2-2.8-7.6-4.8-7.6-8c0-3.3,6.4-5.2,7.6-8
		c1.2-2.9-1.9-8.8,0.3-11c2.2-2.2,8.1,0.9,11-0.3c2.8-1.2,4.8-7.6,8-7.6c3.3,0,5.2,6.4,8,7.6c2.9,1.2,8.8-1.9,11,0.3
		c2.2,2.2-0.9,8.1,0.3,11C48.1,22.5,54.5,24.5,54.5,27.7z"/>
</g>
<polyline class="st1" points="18.8,36.6 18.8,18.8 36.3,36.3 36.3,18.8 "/>
</svg>
