<?xml version="1.0" encoding="utf-8"?>
<!-- Generator: Adobe Illustrator 22.0.0, SVG Export Plug-In . SVG Version: 6.00 Build 0)  -->
<svg version="1.1" id="图层_1" xmlns="http://www.w3.org/2000/svg" xmlns:xlink="http://www.w3.org/1999/xlink" x="0px" y="0px"
	 viewBox="0 0 2000 2000" style="enable-background:new 0 0 2000 2000;" xml:space="preserve">
<style type="text/css">
	.st0{fill:#FFFFFF;}
</style>
<path class="st0" d="M1283.2,1855c45.2-45.2,67.8-113,56.5-180.9c-6.8-31.7-20.3-61-40.7-88.2c79.1-27.1,135.6-104,135.6-192.2
	c0-47.5-15.8-90.4-43-124.3c76.9-27.1,133.4-101.7,133.4-189.9c0-40.7-13.6-81.4-33.9-113h260c54.3,0,108.5-22.6,142.4-61
	c45.2-45.2,67.8-113,56.5-180.9c-18.1-92.7-106.3-165-205.7-165H953.1l101.7-101.7c72.4-70.1,85.9-183.1,29.4-264.5
	c-40.7-54.3-101.7-85.9-167.3-85.9c-54.3,0-104,20.3-142.4,58.8l-416,418.3C220.6,722.2,146,903.1,146,1095.3v368.5
	c0,248.7,203.5,452.2,452.2,452.2h542.6C1192.8,1916,1244.8,1893.4,1283.2,1855L1283.2,1855z M598.1,1825.6
	c-199,0-361.7-162.8-361.7-361.7v-368.5c0-169.6,65.6-327.8,185.4-447.7l416-418.3c22.6-22.6,47.5-31.7,79.1-31.7
	c38.4,0,70.1,18.1,92.7,49.7c31.7,45.2,24.9,106.3-18.1,147L812.9,573c-13.6,13.6-15.8,31.7-9,49.7c6.8,15.8,22.6,27.1,40.7,27.1
	h899.8c56.5,0,106.3,38.4,115.3,90.4c6.8,38.4-4.5,74.6-31.7,101.7c-18.1,22.6-47.5,33.9-76.9,33.9h-542.6
	c-24.9,0-45.2,20.3-45.2,45.2c0,24.9,20.3,45.2,45.2,45.2h113c63.3,0,113,49.7,113,113s-49.7,113-113,113h-203.5
	c-24.9,0-45.2,20.3-45.2,45.2c0,24.9,20.3,45.2,45.2,45.2h113c63.3,0,113,49.7,113,113c0,63.3-49.7,113-113,113h-203.5
	c-24.9,0-45.2,20.4-45.2,45.2c0,24.9,20.4,45.2,45.2,45.2H1134c56.5,0,106.3,38.4,115.3,90.4c6.8,38.4-4.5,74.6-29.4,101.7
	c-15.8,15.8-43,33.9-79.1,33.9H598.1z M598.1,1825.6"/>
</svg>
