<?xml version="1.0" standalone="no"?><!DOCTYPE svg PUBLIC "-//W3C//DTD SVG 1.1//EN" "http://www.w3.org/Graphics/SVG/1.1/DTD/svg11.dtd"><svg t="1618468683883" class="icon" viewBox="0 0 1024 1024" version="1.1" xmlns="http://www.w3.org/2000/svg" p-id="34233" xmlns:xlink="http://www.w3.org/1999/xlink" width="200" height="200"><defs><style type="text/css"></style></defs><path d="M512 487.13m-348.19 0a348.19 348.19 0 1 0 696.38 0 348.19 348.19 0 1 0-696.38 0Z" fill="#1296db" opacity=".05" p-id="34234"></path><path d="M512 67.8C267.08 67.8 67.8 267.08 67.8 512S267.08 956.2 512 956.2c244.98 0 444.2-199.28 444.2-444.2S756.98 67.8 512 67.8m0 851.36c-224.48 0-407.16-182.62-407.16-407.16 0-224.48 182.68-407.16 407.16-407.16 224.54 0 407.22 182.68 407.22 407.16 0 224.54-182.68 407.16-407.22 407.16" fill="#1296db" p-id="34235"></path><path d="M512 959.67C265.15 959.67 64.33 758.84 64.33 512 64.33 265.15 265.15 64.33 512 64.33S959.67 265.15 959.67 512c0 246.84-200.82 447.67-447.67 447.67m0-888.4C268.98 71.27 71.27 268.98 71.27 512S268.98 952.73 512 952.73 952.73 755.02 952.73 512 755.02 71.27 512 71.27m0 851.36c-226.42 0-410.63-184.21-410.63-410.63S285.58 101.37 512 101.37c226.45 0 410.69 184.21 410.69 410.63S738.45 922.63 512 922.63m0-814.32c-222.6 0-403.69 181.1-403.69 403.69 0 222.6 181.1 403.69 403.69 403.69 222.63 0 403.75-181.09 403.75-403.69S734.63 108.31 512 108.31" fill="#1296db" p-id="34236"></path><path d="M746.26 299.29c-130.04 0-219.65-75.96-220.6-76.73-3.78-3.22-8.83-4.83-13.83-4.39-5 0.44-9.61 2.94-12.72 6.89-46.08 57.91-164.68 73.18-221.26 73.18-4.67 0.39-9.67 1.89-13.1 5.38-3.55 3.44-5.5 8.16-5.5 13.11v212.55c0 91.45 139.86 276.68 254.3 276.68 119.82 0 251.19-189.56 251.19-270.02V317.78c0.06-10.22-8.27-18.49-18.48-18.49z m-18.49 236.64c0 64.07-119.04 232.98-214.16 232.98-91.06 0-217.27-166.41-217.27-239.64v-194.5c45.53-2.11 158.3-13.44 219.44-73.07 30.54 21.99 107.38 69.07 211.99 74.18v200.05z" fill="#1296db" p-id="34237"></path><path d="M513.55 809.42c-27.76 0-58.01-10.4-89.89-30.92-28.12-18.09-56.75-43.8-82.81-74.34-51.68-60.56-85.07-129.2-85.07-174.88V316.72c0-5.96 2.33-11.5 6.55-15.6 4.49-4.57 10.77-5.98 15.23-6.35l0.29-0.01c55.81 0 173.31-15.02 218.55-71.87 3.68-4.67 9.2-7.66 15.12-8.18 5.92-0.52 11.89 1.37 16.39 5.2 3.74 3.12 92.32 75.91 218.35 75.91 5.9 0 11.44 2.3 15.6 6.48 4.13 4.15 6.39 9.65 6.36 15.49v218.13c0 40.94-33.5 109.78-81.47 167.4-56.12 67.43-119.25 106.1-173.2 106.1M278 301.7c-3.28 0.29-7.77 1.29-10.78 4.35-2.93 2.84-4.5 6.6-4.5 10.67v212.55c0 43.45 33.52 111.92 83.41 170.38 25.63 30.03 53.74 55.28 81.29 73.01 30.75 19.79 59.73 29.82 86.14 29.82 51.88 0 113.06-37.76 167.86-103.59 47.02-56.49 79.86-123.5 79.86-162.96V317.78c0.02-4-1.52-7.75-4.34-10.58a14.976 14.976 0 0 0-10.68-4.44c-53.32 0-108.32-13.09-159.06-37.86-37.99-18.54-61.19-37.54-63.71-39.64-3.17-2.7-7.27-4-11.35-3.64-4.03 0.36-7.78 2.39-10.3 5.58-46.86 58.88-166.81 74.47-223.84 74.5m235.61 470.69c-22.22 0-47.23-9.34-74.32-27.75-23.73-16.13-48.32-38.9-71.12-65.84-45.04-53.25-75.31-113.34-75.31-149.52V331.45l3.31-0.15c45.23-2.1 156.92-13.32 217.18-72.09l2.09-2.04 2.36 1.7c28.34 20.41 105.55 68.42 210.13 73.53l3.3 0.16v203.36c0 32.76-29.69 91.45-72.21 142.74-49.37 59.56-102.37 93.73-145.41 93.73m-213.8-434.32v191.2c0 34.66 29.6 92.95 73.67 145.04 48.27 57.06 100.66 91.13 140.13 91.13 40.96 0 92.02-33.25 140.08-91.21 40.92-49.35 70.61-107.52 70.61-138.3V339.16c-102-5.87-177.92-51.6-208.19-72.97-60.94 57.31-168.89 69.38-216.3 71.88" fill="#1296db" p-id="34238"></path><path d="M440.48 383.4c-7.11-7.38-18.83-7.6-26.21-0.5-7.33 7.11-7.55 18.83-0.44 26.21l60.41 62.52h-63.19c-10.27 0-18.49 8.27-18.49 18.49s8.21 18.48 18.49 18.48h82.46v34.31h-82.46c-10.27 0-18.49 8.27-18.49 18.49 0 10.28 8.21 18.49 18.49 18.49h82.46v72.74a18.5 18.5 0 0 0 18.54 18.54c10.22 0 18.49-8.27 18.49-18.54v-72.74h82.51c10.22 0 18.49-8.21 18.49-18.49 0-10.22-8.27-18.49-18.49-18.49h-82.51v-34.26h82.51c10.22 0 18.49-8.27 18.49-18.49 0-10.27-8.27-18.49-18.49-18.49h-63.3l60.41-62.52c7.11-7.39 6.89-19.1-0.44-26.21-7.33-7.16-19.05-6.94-26.15 0.44l-71.52 74.07-71.57-74.05z" fill="#1296db" p-id="34239"></path><path d="M512.05 674.66c-12.14 0-22.01-9.88-22.01-22.01v-69.27h-78.99c-12.11 0-21.96-9.85-21.96-21.96 0-12.11 9.85-21.96 21.96-21.96h78.99v-27.37h-78.99c-12.11 0-21.96-9.85-21.96-21.96s9.85-21.96 21.96-21.96h55.01l-54.73-56.64c-8.4-8.73-8.17-22.68 0.52-31.11 8.75-8.42 22.71-8.15 31.12 0.59l69.07 71.48 69.02-71.48c4.09-4.25 9.59-6.65 15.48-6.74 5.84-0.1 11.4 2.12 15.6 6.22 8.68 8.42 8.91 22.37 0.52 31.1l-54.73 56.64h55.12c12.11 0 21.96 9.85 21.96 21.96s-9.85 21.96-21.96 21.96h-79.04v27.31h79.04c12.11 0 21.96 9.85 21.96 21.96 0 12.11-9.85 21.96-21.96 21.96h-79.04v69.27c0 12.14-9.85 22.01-21.96 22.01z m-101-128.26c-8.28 0-15.01 6.74-15.01 15.02 0 8.42 6.6 15.02 15.01 15.02h85.93v76.21c0 8.31 6.76 15.07 15.07 15.07 8.28 0 15.02-6.76 15.02-15.07v-76.21h85.98c8.28 0 15.02-6.74 15.02-15.02s-6.74-15.02-15.02-15.02h-85.98v-41.2h85.98c8.28 0 15.02-6.74 15.02-15.02s-6.74-15.02-15.02-15.02h-71.48l66.09-68.4c5.75-5.97 5.59-15.53-0.36-21.3-2.87-2.81-6.6-4.33-10.65-4.26-4.02 0.06-7.78 1.7-10.59 4.62l-74.01 76.66-74.07-76.66c-5.76-5.98-15.32-6.17-21.3-0.41-5.94 5.76-6.1 15.32-0.35 21.3l66.09 68.4h-71.37c-8.28 0-15.01 6.74-15.01 15.02s6.74 15.01 15.01 15.01h85.93v41.26h-85.93z" fill="#1296db" p-id="34240"></path></svg>