<?xml version="1.0" standalone="no"?><!DOCTYPE svg PUBLIC "-//W3C//DTD SVG 1.1//EN" "http://www.w3.org/Graphics/SVG/1.1/DTD/svg11.dtd"><svg t="1618470021002" class="icon" viewBox="0 0 1024 1024" version="1.1" xmlns="http://www.w3.org/2000/svg" p-id="74450" xmlns:xlink="http://www.w3.org/1999/xlink" width="200" height="200"><defs><style type="text/css"></style></defs><path d="M512 512m-512 0a512 512 0 1 0 1024 0 512 512 0 1 0-1024 0Z" fill="#FFC600" opacity=".25" p-id="74451" data-spm-anchor-id="a313x.7781069.0.i48" class="selected"></path><path d="M512 512m-432.620155 0a432.620155 432.620155 0 1 0 865.24031 0 432.620155 432.620155 0 1 0-865.24031 0Z" fill="#FFC600" p-id="74452" data-spm-anchor-id="a313x.7781069.0.i45" class="selected"></path><path d="M512 765.062946a254.015504 254.015504 0 0 1 0-507.475349 19.051163 19.051163 0 1 1 0 38.022946 215.675039 215.675039 0 1 0 215.675039 215.675038 19.051163 19.051163 0 0 1 38.022945 0A254.015504 254.015504 0 0 1 512 765.062946z" fill="#FFFFFF" p-id="74453" data-spm-anchor-id="a313x.7781069.0.i47" class=""></path><path d="M588.125271 493.266357H435.874729a19.051163 19.051163 0 0 1 0-38.022946h152.250542a19.051163 19.051163 0 0 1 0 38.022946z m0 73.505736H435.874729a19.051163 19.051163 0 0 1 0-38.022946h152.250542a19.051163 19.051163 0 0 1 0 38.022946z" fill="#FFFFFF" p-id="74454"></path><path d="M512 642.976744a18.971783 18.971783 0 0 1-18.971783-18.971783V471.675039a19.051163 19.051163 0 1 1 38.022946 0v152.171163A19.051163 19.051163 0 0 1 512 642.976744z" fill="#FFFFFF" p-id="74455" data-spm-anchor-id="a313x.7781069.0.i46"></path><path d="M512 480.565581a18.654264 18.654264 0 0 1-13.415194-5.635969l-62.789457-62.710077a19.051163 19.051163 0 0 1 26.909767-26.909768l62.710078 62.710078a18.971783 18.971783 0 0 1 0 26.909767 18.495504 18.495504 0 0 1-13.415194 5.635969z" fill="#FFFFFF" p-id="74456"></path><path d="M512 480.565581a18.654264 18.654264 0 0 1-13.415194-5.635969 19.130543 19.130543 0 0 1 0-26.909767l62.789458-62.710078a19.051163 19.051163 0 0 1 26.909767 26.909768l-62.868837 62.710077a18.495504 18.495504 0 0 1-13.415194 5.635969z m104.384496-122.086201a18.971783 18.971783 0 0 0 13.415194-5.635969l62.789457-62.710078a19.051163 19.051163 0 1 0-26.909767-26.909767L603.286822 326.013023a19.051163 19.051163 0 0 0 13.415194 32.466357z" fill="#FFFFFF" p-id="74457"></path><path d="M679.094574 421.268837a19.051163 19.051163 0 0 0 13.494573-32.307597l-62.789457-62.789457A19.051163 19.051163 0 0 0 603.286822 352.922791l62.789457 62.789457a19.209922 19.209922 0 0 0 13.018295 5.556589z" fill="#FFFFFF" p-id="74458"></path><path d="M619.877209 358.47938h127.007752a19.051163 19.051163 0 1 0 0-38.022946h-127.007752a19.051163 19.051163 0 1 0 0 38.022946z" fill="#FFFFFF" p-id="74459"></path></svg>