<?xml version="1.0" standalone="no"?><!DOCTYPE svg PUBLIC "-//W3C//DTD SVG 1.1//EN" "http://www.w3.org/Graphics/SVG/1.1/DTD/svg11.dtd"><svg t="1618469446825" class="icon" viewBox="0 0 1024 1024" version="1.1" xmlns="http://www.w3.org/2000/svg" p-id="39032" xmlns:xlink="http://www.w3.org/1999/xlink" width="200" height="200"><defs><style type="text/css"></style></defs><path d="M692.9571875 589.9025l-0.031875 0.2540625-0.04875 0.3365625c0.0159375-0.031875-1.4578125 6.324375-1.4578125 6.324375l-0.0665625 0.3365625h0.8034375c1.2196875 0 2.3925-0.031875 3.388125-0.52875 1.1709375-0.5615625 2.0521875-1.7671875 2.3925-3.1621875 0.3375-1.5403125-0.13125-2.73-1.3321875-3.21-0.04875 0-3.065625-0.2896875-3.065625-0.2896875l-0.5803125-0.061875h-0.0009375v0.0009375z" fill="#fe2341" p-id="39033"></path><path d="M606.138125 652.7721875h35.2153125c0.3234375 0 0.6740625-0.0159375 1.0134375-0.0459375h34.700625c-4.959375 0-7.9940625-4.014375-6.8371875-8.9409375l2.1665625-9.2953125h-0.3534375c-0.96 0-1.651875-0.031875-2.13375-0.0646875-0.466875-0.06375-0.9496875 0-1.284375-0.271875-0.28875-0.2559375-0.706875-0.5775-0.6928125-0.9178125 0-0.31875 0.1321875-0.8175 0.339375-1.5075l5.488125-18.2315625h3.515625l1.265625-5.4075c-0.6553125 0.015-1.3303125 0.03-2.3446875 0.07875l-0.0946875-0.1453125c0.1940625-0.755625 0.3703125-1.54125 0.564375-2.34375l0.271875-1.07625c0.4003125-1.6996875 0.75375-3.6290625 0.8034375-4.2196875 0.0328125-0.3703125 0.1275-1.2525-0.868125-1.2525-0.41625 0-0.8990625 0.1771875-1.33125 0.3853125-0.2428125 0.8821875-0.740625 3.3890625-0.995625 4.54125-0.49875 2.409375-0.52875 2.6821875-0.76875 3.871875l-0.1453125 0.159375c-1.831875-0.031875-2.4553125-0.031875-4.5440625 0.0646875l-0.110625-0.18c0.3375-1.426875 0.673125-2.8875 1.0115625-4.2984375 0.8990625-3.8859375 1.07625-5.3615625 1.333125-7.3359375l0.159375-0.1275c2.07-0.2728125 2.53875-0.3365625 4.7840625-0.8034375l0.1771875 0.2428125-0.3365625 1.2178125c0.350625-0.2240625 0.73875-0.435 1.0903125-0.643125 1.07625-0.49875 2.23125-0.6740625 2.8575-0.6740625 0.4340625 0 0.915 0.06375 1.318125 0.24l5.2115625-22.453125c1.078125-4.430625 5.169375-8.1403125 9.55125-8.8303125h1.6209375c-4.41375 0.6928125-8.506875 4.4165625-9.5325 8.8303125l-5.5875 23.915625c0.2746875 0.946875-0.0159375 2.1478125-0.5128125 4.363125l-0.28875 1.2215625c-0.6121875 2.69625-0.675 3.195-0.9815625 5.04l-0.2409375 0.1621875h-0.5146875l-1.47375 6.3403125a2.4 2.4 0 0 1 0.52875-0.28875c0.88125-0.3046875 2.8246875-0.62625 2.8246875-0.62625l6.35625-0.031875-2.1825 7.1878125c-0.3365625 1.2375-0.7575 2.0259375-1.0284375 2.3953125-0.208125 0.3675-0.5146875 0.6909375-1.0603125 0.99375-0.5278125 0.2559375-1.0434375 0.45-1.475625 0.49875-0.4171875 0.031875-1.0575 0.04875-1.9565625 0.04875h-4.3490625l-1.6209375 6.8390625 1.28625-0.13125-0.9328125 3.1321875h-1.04625l-2.1675 9.2765625c-1.1521875 4.9453125 1.8946875 8.9596875 6.823125 8.9596875h35.1984375c0.1134375 0 0.208125-0.01875 0.3215625-0.01875 4.41375-0.7040625 8.4740625-4.395 9.48375-8.7928125l16.3921875-70.400625c1.1503125-4.9265625-1.910625-8.9578125-6.825-8.9578125h-30.526875c-0.3534375-0.07875-0.7875-0.110625-1.2684375-0.110625h-40.464375c-0.3346875 0-0.6721875 0.031875-1.0115625 0.061875h-33.24c-4.9453125 0-9.8540625 4.03125-10.995 8.9578125l-16.404375 70.400625c-1.1221875 4.9096875 1.929375 8.925 6.8559375 9.0046875l-0.0009375-0.0065625z m78.6496875-25.9865625c-0.1621875 0.5475-0.3046875 0.9646875-0.706875 1.303125-0.435 0.369375-0.93375 0.73875-2.1046875 0.73875l-2.1825 0.080625-0.016875 1.9565625c-0.0290625 0.5615625 0.1134375 0.49875 0.2109375 0.5934375a0.729375 0.729375 0 0 0 0.286875 0.178125l0.70875-0.0328125 2.08875-0.110625-0.86625 2.83875h-2.3765625c-1.6678125 0-2.938125 0-3.3234375-0.3365625-0.38625-0.2240625-0.45-0.5625-0.4321875-1.1071875l0.159375-7.640625h3.804375l-0.0646875 1.573125h0.9309375c0.3215625 0 0.515625-0.031875 0.6609375-0.110625 0.129375-0.0825 0.208125-0.1940625 0.271875-0.4021875l0.2896875-1.2346875h3.016875l-0.3515625 1.715625-0.00375-0.0028125z m13.3715625 7.6078125h-4.0978125l0.28875-0.9328125h-8.3128125l0.8503125-2.7121875h0.8521875l4.3490625-14.39625 0.864375-2.938125h4.1896875l-0.4340625 1.4775s1.1390625-0.7875 2.180625-1.0603125c0.8521875-0.2259375 5.1365625-0.3365625 6.5990625-0.369375h4.44375l0.03375 1.6696875c-0.0159375 0.2559375 0.2409375 0.3825 0.7396875 0.3825h0.915l-0.83625 2.745h-2.3934375c-2.0840625 0.1771875-2.8715625-0.7396875-2.825625-1.7353125l-0.0459375-1.635-0.418125 1.4596875h-1.4484375l-4.2984375 14.205h1.1390625l-0.9328125 2.90625h-1.1221875l-0.286875 0.93 0.0075 0.00375z m18.489375-12.6328125h-4.4625l-0.706875 2.2153125h4.475625l-0.73875 2.439375h-4.8628125l-0.86625 1.0115625h1.9565625l0.4828125 3.065625c0.04875 0.3065625 0.0628125 0.500625 0.159375 0.645 0.0646875 0.1275 0.675 0.1753125 1.0284375 0.1753125h0.564375l-0.9178125 2.9540625h-1.5075c-0.2409375 0-0.5746875-0.0159375-1.0584375-0.031875-0.4321875-0.031875-0.73875-0.28875-1.0603125-0.4340625-0.301875-0.1275-0.69-0.466875-0.8034375-1.044375l-0.44625-3.04875-2.2171875 3.016875c-0.706875 0.9496875-1.635 1.6865625-3.2428125 1.6865625h-3.080625l0.8175-2.66625h1.1728125c0.3515625 0 0.643125-0.159375 0.8671875-0.2559375 0.2559375-0.0946875 0.43125-0.208125 0.66-0.5446875l3.1921875-4.51125h-4.2365625l0.7209375-2.4234375h4.8459375l0.70875-2.214375h-4.7990625l0.8821875-2.776875h13.3059375l-0.8334375 2.7421875z m0.76875-18.7134375c-0.0975-1.0434375-0.2559375-2.120625-0.4040625-3.1321875-0.2240625-2.131875-0.17625-1.8271875-0.44625-3.1790625l-0.016875-0.0290625c0.016875-0.0815625 0.016875-0.1621875 0.03-0.2428125l0.1771875-0.1434375c2.11875-0.2746875 2.1534375-0.3534375 4.460625-0.7875l0.1940625 0.208125 0.301875 5.874375c0.0196875 0.129375 0.0196875 0.208125 0.0196875 0.3365625 1.2215625-2.7121875 1.1709375-1.9565625 2.6784375-5.4253125v0.031875c0.01875-0.031875 0.01875-0.07875 0.04875-0.0975l0.1434375-0.1425c2.0090625-0.2746875 2.3765625-0.3534375 4.59375-0.7884375l0.1771875 0.2090625-11.8303125 20.7365625c-0.5475 0.9815625-1.524375 1.7353125-3.1621875 1.7353125l-2.7440625-0.0328125 0.8334375-2.6465625h0.515625c0.28875 0 0.466875-0.01875 0.62625-0.0975 0.110625-0.031875 0.24-0.1453125 0.350625-0.3046875l0.8990625-1.573125c1.3621875-2.0690625 1.7015625-2.968125 3.1321875-5.31-0.2409375-2.6334375-0.3721875-3.49875-0.5784375-5.199375z m-9.5325-7.160625a3.1753125 3.1753125 0 0 1 1.554375 1.284375c0.0328125-0.1621875 0.04875-0.3215625 0.07875-0.49875l0.1621875-0.1303125c2.135625-0.31875 2.6971875-0.399375 4.9265625-0.800625l0.080625 0.19125c-0.4021875 1.670625-0.819375 3.35625-1.1878125 5.0240625-0.819375 3.485625-1.108125 5.2828125-1.426875 7.1090625l-0.1940625 0.1453125c-2.1525-0.016875-2.7590625-0.016875-4.734375 0.0646875l-0.1621875-0.1621875c0.0946875-0.24 0.1621875-0.4809375 0.2259375-0.73875-0.706875 0.609375-1.5103125 1.0275-2.3446875 1.0753125a5.5096875 5.5096875 0 0 1-2.439375-0.448125c-2.76-1.0603125-2.2978125-4.044375-1.9265625-5.698125 0.3675-1.6209375 1.0115625-3.3234375 2.3259375-4.5759375 1.8984375-1.7325 4.096875-2.199375 5.0596875-1.8459375v0.0046875h0.001875z m-4.9753125-7.156875c0.5128125 0.691875 0.688125 1.55625 0.688125 2.439375 0 0.676875-0.0946875 1.3509375-0.238125 1.9265625-0.530625 2.2959375-1.7503125 4.1925-3.4509375 5.49-2.5546875 1.8778125-5.8115625 1.8778125-8.7009375 1.8778125h-0.320625c-0.1940625 0.0975-0.403125 0.3853125-0.403125 0.3853125-0.031875 0.1275-0.691875 2.889375-0.691875 2.889375-0.016875 0-0.785625 3.755625-0.945 4.381875-0.545625-0.04875-1.9396875-0.04875-5.2809375-0.0159375 0.178125-0.643125 3.451875-14.1571875 3.451875-14.1571875l1.3621875-6.35625s0.1134375-0.49875 0.1771875-0.7884375c0.62625 0.0646875 2.150625 0.1134375 5.9896875 0.04875 0 0 1.460625-0.0159375 1.47375 0.016875 3 0.0140625 5.5846875 0.031875 6.8859375 1.861875h0.0028125z m-48.4753125 12.054375c-0.22125 0.849375-0.4021875 1.68375-0.5934375 2.5171875-0.3853125 1.8-0.5446875 2.4553125-0.645 2.9221875-0.0946875 0.4659375-0.1275 0.706875-0.28875 1.635l-0.110625 0.080625-0.0975 0.0815625c-1.0415625 0-1.7334375-0.016875-2.4065625 0-0.658125 0.0159375-1.3303125 0.0459375-2.3278125 0.0778125l-0.0646875-0.0778125-0.0459375-0.0815625c0.2259375-1.0275 0.399375-1.396875 0.5446875-1.7503125 0.129375-0.350625 0.2259375-0.7209375 0.4828125-1.7484375 0.2896875-1.3471875 0.49875-2.2959375 0.624375-3.129375 0.1471875-0.8034375 0.2278125-1.4925 0.3384375-2.278125l0.0815625-0.0646875 0.0946875-0.0778125c1.0434375-0.1453125 1.7353125-0.2428125 2.4084375-0.339375a46.9790625 46.9790625 0 0 0 2.488125-0.45l0.0946875 0.04875 0.031875 0.1125c-0.223125 0.8371875-0.399375 1.6546875-0.609375 2.52v0.001875z m0.17625-3.594375c-1.1709375 0.8034375-2.92125 0.9815625-3.9178125 0.418125-0.995625-0.59625-0.849375-1.7184375 0.339375-2.52 1.15125-0.800625 2.919375-1.0115625 3.913125-0.418125 0.9815625 0.5775 0.83625 1.7025-0.3346875 2.52z m15.3778125 25.3078125h-4.4775l-0.706875 2.2828125h4.59l-0.8503125 2.7571875h-4.59l-1.0903125 3.706875c-0.13125 0.4021875 1.104375 0.466875 1.539375 0.466875l2.2978125-0.31875-0.9178125 3.0515625h-5.1665625c-0.418125 0-0.7228125-0.0815625-1.171875-0.18-0.4490625-0.095625-0.628125-0.2728125-0.83625-0.5915625-0.1940625-0.2915625-0.49875-0.5475-0.28875-1.1896875l1.4925-4.9453125h-2.53875l0.83625-2.80875h2.56875l0.6721875-2.2771875h-2.5359375l0.8034375-2.6334375h11.2021875l-0.834375 2.6784375h0.0028125v0.0009375z m1.8590625-7.524375l-0.8475 2.8246875h-6.309375l-0.6703125 0.5775c-0.28875 0.2728125-0.42 0.1425-0.7903125 0.350625-0.3675 0.178125-1.089375 0.52875-2.0690625 0.52875h-2.0071875l0.8034375-2.679375h0.609375c0.5128125 0 0.849375-0.050625 1.0115625-0.16125 0.223125-0.1453125 0.4340625-0.4340625 0.706875-0.8990625l1.138125-2.0859375h4.5740625l-0.75375 1.54125h4.603125v0.0028125h0.0009375z m-7.9584375-19.3565625c1.68375 0 3.3065625 0.3675 4.2403125 1.554375 0.6065625 0.76875 1.0753125 2.0390625 0.4640625 4.7671875-0.1940625 0.8203125-0.7396875 2.8246875-1.940625 4.1559375-1.55625 1.6696875-3.6309375 2.214375-5.6653125 2.214375-0.8034375 0-2.008125-0.110625-2.8921875-0.45-2.7571875-1.10625-2.2753125-4.1071875-1.9246875-5.776875 0.38625-1.635 1.0125-3.3553125 2.3934375-4.621875 1.891875-1.7484375 4.3153125-1.8459375 5.326875-1.8459375l-0.001875 0.0028125z m-27.5765625 0.575625c2.055-0.27 2.5528125-0.3346875 4.7690625-0.8034375l0.1921875 0.2428125-0.3365625 1.2196875c0.3534375-0.2240625 0.73875-0.4321875 1.10625-0.6403125 0.2559375-0.1125 0.4809375-0.2259375 0.73875-0.3046875l5.26125-22.5853125c1.063125-4.4296875 5.1534375-8.1375 9.553125-8.8275h1.9425c-4.41375 0.69-8.506875 4.41375-9.55125 8.8275l-5.1675 22.231875h0.129375c0.93375 0 2.023125 0.2896875 2.44125 1.411875 0.4321875 1.0115625 0.159375 2.24625-0.3853125 4.6865625l-0.3046875 1.2215625c-0.594375 2.6953125-0.658125 3.1940625-0.9965625 5.038125l-0.2259375 0.16125c-1.5075-0.0159375-2.180625-0.03-3.6103125 0.0328125l-8.315625 35.6165625c-1.138125 4.9453125 1.87875 8.9596875 6.84 8.9596875h-1.910625c-4.9425 0-7.99125-4.0134375-6.8371875-8.9596875l10.3696875-44.574375c-0.061875-0.03-0.1940625-0.046875-0.3375-0.046875-0.4171875 0-0.88125 0.17625-1.3303125 0.38625-0.2428125 0.88125-0.7228125 3.3853125-0.9975 4.54125-0.4828125 2.405625-0.5446875 2.68125-0.76875 3.868125l-0.159375 0.1621875c-1.8159375-0.031875-2.443125-0.031875-4.5590625 0.061875l-0.0946875-0.159375 1.0575-4.303125c0.8821875-3.8803125 1.0603125-5.35875 1.3303125-7.33125l0.1621875-0.13125-0.0046875-0.0028125z m-21.0075 3.995625l0.2409375-0.9965625 2.6165625-11.574375s0.1425-0.6403125 0.159375-0.7528125c0.061875 0.0946875 0.946875 0.1453125 5.956875 0.0946875a0.4884375 0.4884375 0 0 0-0.0478125 0.1453125c-0.466875 1.348125-3.0196875 11.63625-3.0196875 11.63625l-0.4809375 3.065625 0.04875 0.515625c0.159375 1.524375 1.07625 2.325 2.69625 2.325a3.97875 3.97875 0 0 0 2.5846875-0.915c1.2815625-1.0603125 1.6996875-2.6634375 2.214375-4.9753125 0.016875 0 2.439375-11.2678125 2.600625-11.893125 0.3365625 0.0946875 1.3790625 0.1265625 5.008125 0.0946875-0.016875 0.031875-0.0328125 0.061875-0.0328125 0.1425-0.45 1.381875-3.1003125 12.07125-3.1003125 12.07125l-0.301875 1.1390625c-0.62625 2.214375-1.3509375 4.7503125-4.093125 6.358125-1.543125 0.9796875-3.868125 1.4925-6.35625 1.4925-1.9396875 0-5.32875-0.3046875-6.549375-2.3934375-0.3703125-0.66-0.5625-1.4109375-0.5625-2.37375l0.418125-3.2109375v0.0046875z" fill="#fe2341" p-id="39034"></path><path d="M673.0540625 631.5359375l1.6209375-6.9496875h-0.13125l-1.7165625 5.6821875c-0.1453125 0.5775-0.24 0.8503125-0.1275 1.0096875 0.03 0.0975 0.159375 0.21 0.3515625 0.2578125h0.0028125zM705.9096875 605.710625c0.48375 0 1.3490625-0.3346875 1.6846875-0.8503125 0.208125-0.2559375 0.3853125-0.6740625 0.5465625-1.0921875 0.110625-0.5615625 0.2728125-1.1390625 0.418125-1.7325 0.095625-0.4340625 0.19125-0.8015625 0.2728125-1.155 0.080625-1.396875-0.3703125-2.1984375-1.2703125-2.1984375-1.4090625 0-1.95375 1.715625-2.4065625 3.725625-0.1753125 0.7209375-0.301875 1.396875-0.271875 2.023125 0.0159375 1.2815625 0.8859375 1.2815625 1.0303125 1.2815625l-0.00375-0.001875zM691.9775 630.5890625h3.3215625l0.9628125-3.1790625h-3.3046875l-0.9796875 3.1790625zM696.2759375 616.3540625l-1.074375 3.62625s1.2328125-0.5475 1.9078125-0.73875c0.69-0.17625 1.7025-0.24 1.6865625-0.24l0.785625-2.6475h-3.305625zM693.5159375 625.563125s1.2703125-0.6421875 1.9425-0.8475c0.6721875-0.1621875 1.7025-0.2915625 1.7025-0.2915625l0.8175-2.6146875h-3.324375l-1.138125 3.75375zM661.5603125 605.5334375c0.49875 0 0.9825-0.3215625 1.3359375-0.8671875 0.5446875-0.7209375 0.93-2.4525 1.0275-2.8865625 0.4809375-2.071875 0.418125-3.35625-0.6928125-3.35625-1.396875 0-1.955625 1.6996875-2.405625 3.7715625-0.1621875 0.69-0.2896875 1.3621875-0.275625 2.04 0.015 1.2984375 0.8671875 1.2984375 1.010625 1.2984375zM336.905 555.85625h17.1740625c4.944375 0 8.95875-3.9965625 8.95875-8.9090625v-26.049375c0-4.929375-4.0153125-8.8921875-8.95875-8.8921875H336.921875c-4.944375 0-8.9578125 3.965625-8.9578125 8.8921875h-0.016875v26.049375c0 4.9125 4.0134375 8.9090625 8.95875 8.9090625h-0.0009375zM275.399375 555.85625h17.1740625c4.9434375 0 8.9578125-3.9965625 8.9578125-8.9090625v-26.049375c0-4.929375-4.0134375-8.8921875-8.9578125-8.8921875h-17.158125c-4.9425 0-8.956875 3.965625-8.956875 8.8921875h-0.016875v26.049375c0 4.9125 4.0134375 8.9090625 8.95875 8.9090625h-0.0009375zM398.05625 555.85625h17.1590625c4.9603125 0 8.9728125-3.9965625 8.9728125-8.9090625v-26.049375c0-4.929375-4.0125-8.8921875-8.9728125-8.8921875H398.05625c-4.9434375 0-8.9540625 3.965625-8.9540625 8.8921875v26.049375c0 4.9134375 4.0115625 8.9090625 8.9540625 8.9090625zM676.90625 622.0334375h3.93375c0.6553125-0.080625 0.815625 0.016875 0.8634375-0.016875l0.38625-1.2834375h-4.8628125l-0.3215625 1.303125v-0.0028125h0.0009375z" fill="#fe2341" p-id="39035"></path><path d="M512 32.534375C247.199375 32.534375 32.5353125 247.1984375 32.5353125 512.0009375 32.5353125 776.8025 247.199375 991.465625 512 991.465625c264.8015625 0 479.4646875-214.663125 479.4646875-479.4646875C991.4646875 247.1984375 776.8025 32.534375 512 32.534375zM231.3565625 339.11c0-15.9075 12.90375-28.8103125 28.8421875-28.8103125h503.6034375c15.939375 0 28.8421875 12.9028125 28.828125 28.8103125v76.4175H231.3546875v-76.4175h0.001875z m561.290625 345.7771875c0 15.9084375-12.920625 28.8121875-28.843125 28.8121875H260.2015625c-15.9065625 0-28.843125-12.9075-28.843125-28.8121875V468.1728125h561.290625v216.714375h-0.001875z" fill="#fe2341" p-id="39036"></path><path d="M682.9746875 617.9890625l0.4490625-1.5403125h-5.2340625l-0.4809375 2.101875a8.341875 8.341875 0 0 1 1.7015625-0.49875c0.5128125-0.095625 3.5625-0.0628125 3.5625-0.0628125h0.001875z" fill="#fe2341" p-id="39037"></path></svg>