<?xml version="1.0" standalone="no"?><!DOCTYPE svg PUBLIC "-//W3C//DTD SVG 1.1//EN" "http://www.w3.org/Graphics/SVG/1.1/DTD/svg11.dtd"><svg t="1618468254128" class="icon" viewBox="0 0 1024 1024" version="1.1" xmlns="http://www.w3.org/2000/svg" p-id="17802" xmlns:xlink="http://www.w3.org/1999/xlink" width="200" height="200"><defs><style type="text/css"></style></defs><path d="M506.82184651 40.78806873c-257.8720237 0-466.03377778 208.16175408-466.03377778 466.03377778s208.16175408 466.03377778 466.03377778 466.03377778 466.03377778-208.16175408 466.03377778-466.03377778-208.16175408-466.03377778-466.03377778-466.03377778z m69.38725217 386.29022105l-65.2447289 52.81716149v10.35630576h60.0665754c8.28504534 0 13.46319762 7.24941392 13.46319763 13.46319763 0 8.28504534-7.24941392 13.46319762-13.46319763 13.46319883h-60.0665754v26.92639524h60.0665754c8.28504534 0 13.46319762 7.24941392 13.46319763 13.46319883 0 7.24941392-5.17815349 13.46319762-12.42756742 13.46319762H512v28.99765688c0 8.28504534-5.17815349 13.46319762-13.46319762 13.46319884s-13.46319762-7.24941392-13.46319883-13.46319884v-28.99765688h-60.0665754c-8.28504534 0-13.46319762-7.24941392-13.46319762-13.46319762 0-8.28504534 7.24941392-13.46319762 13.46319762-13.46319883h60.0665754v-26.92639524h-60.0665754c-8.28504534 0-13.46319762-7.24941392-13.46319762-13.46319883 0-8.28504534 7.24941392-13.46319762 13.46319762-13.46319763h60.0665754v-10.35630576l-68.35162074-54.88842312c-5.17815349-5.17815349-7.24941392-13.46319762-2.07126043-18.64135112 2.07126164-3.10689185 5.17815349-5.17815349 8.28504413-5.17815348 3.10689185 0 7.24941392 2.07126164 10.35630698 3.10689184l63.17346726 52.8171615 62.13783703-51.78153006c5.17815349-5.17815349 13.46319762-3.10689185 18.64135111 2.07126042 6.2137837 6.2137837 4.14252206 14.49882905-1.03563021 19.67698253z m-78.70792773 328.29490488c-137.73887169 0-249.58697836-110.81247645-249.58697836-248.55134815s111.84810667-248.55134815 249.58697836-248.55134815c24.85513482 0 48.67463941 3.10689185 71.4585126 10.35630698l-1.03563022 1.03563021c5.17815349 3.10689185 7.24941392 7.24941392 7.24941392 13.46319762 0 5.17815349-3.10689185 10.35630577-8.28504414 12.42756742-5.17815349 2.07126164-10.35630577 2.07126164-14.49882903-2.07126043-17.6057209-4.14252206-35.21144059-6.2137837-53.8527917-6.21378371-122.20441244 0-221.62495169 98.38490905-221.62495291 219.55369006s99.42053925 219.55369127 221.62495291 219.55369127c122.20441244 0 221.62495169-98.38490905 221.6249517-219.55369127 0-6.2137837 0-12.42756741-1.03563022-18.64135112h2.07126043c-2.07126164-6.2137837 0-12.42756741 5.17815349-16.57008947 5.17815349-4.14252206 12.42756741-4.14252206 17.6057209 0s7.24941392 10.35630577 5.17815227 16.57008947c0 6.2137837 1.03563022 12.42756741 1.03563143 18.64135112-2.07126164 137.73887169-113.91936831 248.55134815-252.69387143 248.55134815z m264.08580741-399.75341747l-61.10220561 61.10220562c-5.17815349 5.17815349-14.49882905 5.17815349-20.71261275 0-5.17815349-5.17815349-5.17815349-14.49882905 0-20.71261154l42.46085571-42.46085572h-124.27567407c-8.28504534 0-14.49882905-6.2137837-14.49882905-14.49882904 0-8.28504534 6.2137837-14.49882905 14.49882905-14.49882783h118.06189037l-37.28270223-37.28270223c-5.17815349-5.17815349-5.17815349-14.49882905 0-20.71261275 5.17815349-5.17815349 14.49882905-5.17815349 20.71261154 0l61.10220683 61.10220683c3.10689185 3.10689185 5.17815349 8.28504534 4.14252207 13.46319762 2.07126164 6.2137837 0 11.39193719-3.10689186 14.49882904z" fill="#FFC600" p-id="17803"></path></svg>