<?xml version="1.0" standalone="no"?><!DOCTYPE svg PUBLIC "-//W3C//DTD SVG 1.1//EN" "http://www.w3.org/Graphics/SVG/1.1/DTD/svg11.dtd"><svg t="1618301429209" class="icon" viewBox="0 0 1024 1024" version="1.1" xmlns="http://www.w3.org/2000/svg" p-id="52596" xmlns:xlink="http://www.w3.org/1999/xlink" width="200" height="200"><defs><style type="text/css"></style></defs><path d="M390.617784 1023.962455a43.219749 43.219749 0 0 1-34.772058-15.231442 94.076551 94.076551 0 0 1-17.364697-71.762702 218.317328 218.317328 0 0 0-49.960835-163.066021C77.711924 558.614184 32.060264 328.222632 175.500338 186.958478l6.527761-6.52776a278.773778 278.773778 0 0 1 202.061924-82.599638c121.680872 0 258.593185 69.586782 386.759153 193.486238A196.25947 196.25947 0 0 0 922.950265 341.320818h21.716537a70.952065 70.952065 0 0 1 73.895957 34.772059c17.364697 43.475739 4.26651 56.531261-223.821126 284.789557l-139.045569 134.779058C455.938056 998.064738 429.741683 1023.962455 390.617784 1023.962455zM384.090023 182.606638a193.272913 193.272913 0 0 0-141.221488 56.53126l-6.527761 6.527761c-106.662756 106.662756-63.016356 291.317318 112.977191 469.572116a262.390379 262.390379 0 0 1 73.895957 191.310318c36.947979-34.772058 97.788414-93.479239 173.817627-171.727036l134.736393-134.779059c76.071877-76.071877 136.912313-134.779058 171.641706-173.902956a278.731113 278.731113 0 0 1-191.224988-76.071878c-112.977191-108.753346-228.130302-167.460526-328.094637-167.460526z" p-id="52597" fill="#ffffff"></path><path d="M709.923409 910.899934a188.963738 188.963738 0 0 1-139.130898-58.707181 43.049088 43.049088 0 0 1 60.883101-60.883101 110.331954 110.331954 0 0 0 78.247797 32.596138 103.334878 103.334878 0 0 0 78.247798-32.596138 112.849196 112.849196 0 0 0 0-158.714181A43.049088 43.049088 0 1 1 849.054308 571.712371a198.136735 198.136735 0 0 1 0 278.261797 179.961401 179.961401 0 0 1-139.130899 60.925766z" p-id="52598" fill="#ffffff"></path><path d="M138.595025 280.437717a138.320262 138.320262 0 0 1-97.83108-41.299819 140.410852 140.410852 0 0 1 0-197.838079 136.528327 136.528327 0 0 1 195.662159 0 140.410852 140.410852 0 0 1 0 197.838079 138.320262 138.320262 0 0 1-97.831079 41.299819z m0-193.486239a62.504375 62.504375 0 0 0-39.123899 15.231442 52.520741 52.520741 0 0 0 0 76.071877 56.659256 56.659256 0 0 0 76.071877 0 52.520741 52.520741 0 0 0 0-76.071877 56.744586 56.744586 0 0 0-36.947978-15.231442z" p-id="52599" fill="#ffffff"></path></svg>