<?xml version="1.0" standalone="no"?><!DOCTYPE svg PUBLIC "-//W3C//DTD SVG 1.1//EN" "http://www.w3.org/Graphics/SVG/1.1/DTD/svg11.dtd"><svg t="1619074519326" class="icon" viewBox="0 0 1152 1024" version="1.1" xmlns="http://www.w3.org/2000/svg" p-id="1705" xmlns:xlink="http://www.w3.org/1999/xlink" width="225" height="200"><defs><style type="text/css"></style></defs><path d="M576.384 999.616a84.48 84.48 0 0 1-51.2-16.32c-12.224-9.152-311.232-219.008-430.784-389.568C54.72 537.472 0 460.992 0 352.512 0 171.392 149.12 24.384 331.392 24.384a336.64 336.64 0 0 1 244.992 105.856A330.24 330.24 0 0 1 820.608 24.384C1003.648 24.384 1152 171.456 1152 352.512c0 106.56-51.2 179.776-92.928 239.232l-1.472 1.92c-119.552 170.624-418.56 381.12-430.784 389.632a85.12 85.12 0 0 1-50.432 16.32z" fill="#fe2341" p-id="1706"></path></svg>