<?xml version="1.0" encoding="utf-8"?>
<!-- Generator: Adobe Illustrator 22.0.0, SVG Export Plug-In . SVG Version: 6.00 Build 0)  -->
<svg version="1.1" id="图层_1" xmlns="http://www.w3.org/2000/svg" xmlns:xlink="http://www.w3.org/1999/xlink" x="0px" y="0px"
	 viewBox="0 0 120 120" style="enable-background:new 0 0 120 120;" xml:space="preserve">
<style type="text/css">
	.st0{fill:#666666;}
</style>
<g>
	<g>
		<path class="st0" d="M56.1,1.3C24.6,3.3-0.2,30.3,1.3,62.5c1.4,29.9,25.7,54.2,55.7,55.6c33.5,1.5,61.3-25.3,61.3-58.4
			c0-14.1-5-27-13.3-37.1c-2.1-2.5-6.2-1.1-6.2,2.2v0c0,0.8,0.3,1.6,0.8,2.2c8.2,10,12.7,23.1,11.5,37.2
			c-2.2,25-22.5,44.9-47.5,46.8C33.5,113.3,8.3,89.4,8.3,59.7C8.3,32.4,29.6,10,56.4,8.3c1.9-0.1,3.3-1.6,3.3-3.5v0
			C59.8,2.8,58.1,1.2,56.1,1.3z"/>
	</g>
	<g>
		<path class="st0" d="M98.5,41.6c-1.9,0-3.5-1.6-3.5-3.5V21.4c0-1.9,1.6-3.5,3.5-3.5h16.8c1.9,0,3.5,1.6,3.5,3.5s-1.6,3.5-3.5,3.5
			H102v13.3C102,40.1,100.4,41.6,98.5,41.6z"/>
	</g>
</g>
</svg>
