<?xml version="1.0" standalone="no"?><!DOCTYPE svg PUBLIC "-//W3C//DTD SVG 1.1//EN" "http://www.w3.org/Graphics/SVG/1.1/DTD/svg11.dtd"><svg t="1617245617756" class="icon" viewBox="0 0 1024 1024" version="1.1" xmlns="http://www.w3.org/2000/svg" p-id="3347" xmlns:xlink="http://www.w3.org/1999/xlink" width="200" height="200"><defs><style type="text/css"></style></defs><path d="M0 512C0 229.229714 229.229714 0 512 0s512 229.229714 512 512-229.229714 512-512 512S0 794.770286 0 512z" fill="#28CB93" p-id="3348"></path><path d="M614.4 729.6h69.668571c22.089143 0 45.531429-22.893714 45.531429-47.177143V614.4H768v101.814857c0 28.598857-23.405714 51.785143-49.371429 51.785143H614.4v-38.4M290.121143 614.4v68.022857c0 24.32 16.566857 47.177143 36.205714 47.177143H384V768H295.643429C272.566857 768 256 744.813714 256 716.214857V614.4h34.121143M384 290.121143H326.326857c-19.602286 0-36.205714 20.333714-36.205714 41.947428v51.931429H256V302.08C256 276.589714 272.566857 256 295.643429 256H384v34.121143m345.6 93.878857V332.068571c0-21.613714-23.405714-41.947429-45.531429-41.947428H614.4V256h104.228571c25.965714 0 49.371429 20.626286 49.371429 46.08v81.92h-38.4m12.8 140.8c0-7.094857-9.728-12.8-21.76-12.8H303.36c-12.032 0-21.76 5.705143-21.76 12.8 0 7.094857 9.728 12.8 21.76 12.8h417.28c12.032 0 21.76-5.705143 21.76-12.8" fill="#FFFFFF" p-id="3349"></path></svg>