<?xml version="1.0" standalone="no"?><!DOCTYPE svg PUBLIC "-//W3C//DTD SVG 1.1//EN" "http://www.w3.org/Graphics/SVG/1.1/DTD/svg11.dtd"><svg t="1617938551303" class="icon" viewBox="0 0 1024 1024" version="1.1" xmlns="http://www.w3.org/2000/svg" p-id="21357" xmlns:xlink="http://www.w3.org/1999/xlink" width="200" height="200"><defs><style type="text/css"></style></defs><path d="M904.533333 215.04H119.466667c-34.133333-0.853333-58.88-29.866667-58.026667-63.146667 0.853333-31.573333 26.453333-57.173333 58.026667-58.026666h785.066666c34.133333 0.853333 58.88 29.866667 58.026667 63.146666-1.706667 31.573333-26.453333 57.173333-58.026667 58.026667m0 357.546667H119.466667c-34.133333-0.853333-58.88-29.866667-58.026667-63.146667 1.706667-31.573333 26.453333-57.173333 58.026667-58.026667h785.066666c34.133333 0.853333 58.88 29.866667 58.026667 63.146667-1.706667 31.573333-26.453333 57.173333-58.026667 58.026667m0 357.546666H119.466667c-34.133333-2.56-58.88-30.72-57.173334-64 2.56-30.72 26.453333-54.613333 57.173334-57.173333h785.066666c34.133333 2.56 58.88 30.72 57.173334 64-2.56 30.72-27.306667 54.613333-57.173334 57.173333" p-id="21358" fill="#d81e06"></path></svg>