<?xml version="1.0" standalone="no"?><!DOCTYPE svg PUBLIC "-//W3C//DTD SVG 1.1//EN" "http://www.w3.org/Graphics/SVG/1.1/DTD/svg11.dtd"><svg t="1620652937563" class="icon" viewBox="0 0 1024 1024" version="1.1" xmlns="http://www.w3.org/2000/svg" p-id="1614" xmlns:xlink="http://www.w3.org/1999/xlink" width="200" height="200"><defs><style type="text/css"></style></defs><path d="M512 128c211.74 0 384 172.26 384 384S723.74 896 512 896 128 723.74 128 512s172.27-384 384-384m0-64C264.58 64 64 264.58 64 512s200.58 448 448 448 448-200.58 448-448S759.42 64 512 64z" p-id="1615"></path><path d="M704 480H397.26L501 376.23A32 32 0 0 0 455.77 331L297.38 489.37s-0.05 0.09-0.09 0.13A32.26 32.26 0 0 0 288 512a32.38 32.38 0 0 0 9.37 22.58L455.77 693A32 32 0 1 0 501 647.76L397.26 544H704a32 32 0 0 0 0-64z" p-id="1616"></path></svg>